<svg xmlns="http://www.w3.org/2000/svg" xmlns:xlink="http://www.w3.org/1999/xlink" width="39.802mm" height="39.802mm" viewBox="4037.6 3036.4 156.7 156.7"><title></title><style type="text/css">
*[layerid="1"] {stroke:#000000;fill:#000000;}
*[layerid="2"] {stroke:#000000;fill:#000000;}
*[layerid="3"] {stroke:#000000;fill:#000000;}
*[layerid="4"] {stroke:#000000;fill:#000000;}
*[layerid="5"] {stroke:#000000;fill:#000000;}
*[layerid="6"] {stroke:#000000;fill:#000000;}
*[layerid="7"] {stroke:#000000;fill:#000000;}
*[layerid="8"] {stroke:#000000;fill:#000000;}
*[layerid="9"] {stroke:#000000;fill:#000000;}
*[layerid="10"] {stroke:#000000;fill:#000000;}
*[layerid="11"] {stroke:#000000;fill:#000000;}
*[layerid="12"] {stroke:#000000;fill:#000000;}
*[layerid="13"] {stroke:#000000;fill:#000000;}
*[layerid="14"] {stroke:#000000;fill:#000000;}
*[layerid="15"] {stroke:#000000;fill:#000000;}
*[layerid="19"] {stroke:#000000;fill:#000000;}
*[layerid="21"] {stroke:#000000;fill:#000000;}
*[layerid="22"] {stroke:#000000;fill:#000000;}
*[layerid="23"] {stroke:#000000;fill:#000000;}
*[layerid="24"] {stroke:#000000;fill:#000000;}
*[layerid="25"] {stroke:#000000;fill:#000000;}
*[layerid="26"] {stroke:#000000;fill:#000000;}
*[layerid="27"] {stroke:#000000;fill:#000000;}
*[layerid="28"] {stroke:#000000;fill:#000000;}
*[layerid="29"] {stroke:#000000;fill:#000000;}
*[layerid="30"] {stroke:#000000;fill:#000000;}
*[layerid="31"] {stroke:#000000;fill:#000000;}
*[layerid="32"] {stroke:#000000;fill:#000000;}
*[layerid="33"] {stroke:#000000;fill:#000000;}
*[layerid="34"] {stroke:#000000;fill:#000000;}
*[layerid="35"] {stroke:#000000;fill:#000000;}
*[layerid="36"] {stroke:#000000;fill:#000000;}
*[layerid="37"] {stroke:#000000;fill:#000000;}
*[layerid="38"] {stroke:#000000;fill:#000000;}
*[layerid="39"] {stroke:#000000;fill:#000000;}
*[layerid="40"] {stroke:#000000;fill:#000000;}
*[layerid="41"] {stroke:#000000;fill:#000000;}
*[layerid="42"] {stroke:#000000;fill:#000000;}
*[layerid="43"] {stroke:#000000;fill:#000000;}
*[layerid="44"] {stroke:#000000;fill:#000000;}
*[layerid="45"] {stroke:#000000;fill:#000000;}
*[layerid="46"] {stroke:#000000;fill:#000000;}
*[layerid="47"] {stroke:#000000;fill:#000000;}
*[layerid="48"] {stroke:#000000;fill:#000000;}
*[layerid="49"] {stroke:#000000;fill:#000000;}
*[layerid="50"] {stroke:#000000;fill:#000000;}
*[layerid="51"] {stroke:#000000;fill:#000000;}
*[layerid="52"] {stroke:#000000;fill:#000000;}
*[layerid="99"] {stroke:#000000;fill:#000000;}
*[layerid="100"] {stroke:#000000;fill:#000000;}
*[layerid="101"] {stroke:#000000;fill:#000000;}
*[layerid="Hole"] {stroke:#000000;fill:#000000;}
*[layerid="DRCError"] {stroke:#000000;fill:#000000;}
*[fill="none"] {fill: none;}
*[stroke="none"] {stroke: none;}
path, polyline, polygon, line {stroke-linecap:round;}
g[c_partid="part_pad"][layerid="1"] ellipse:not([c_etype="pad_outer"]) {fill:#000000;}
g[c_partid="part_pad"][layerid="1"] polygon:not([c_etype="pad_outer"]) {fill:#000000;}
g[c_partid="part_pad"][layerid="1"] polyline:not([c_etype="pad_outer"]) {stroke:#000000;}
g[c_partid="part_pad"][layerid="2"] ellipse:not([c_etype="pad_outer"]) {fill:#000000;}
g[c_partid="part_pad"][layerid="2"] polygon:not([c_etype="pad_outer"]) {fill:#000000;}
g[c_partid="part_pad"][layerid="2"] polyline:not([c_etype="pad_outer"]) {stroke:#000000;}
g[c_partid="part_pad"][layerid="11"] ellipse:not([c_etype="pad_outer"]) {fill:#000000;}
g[c_partid="part_pad"][layerid="11"] polygon:not([c_etype="pad_outer"]) {fill:#000000;}
g[c_partid="part_pad"][layerid="11"] polyline:not([c_etype="pad_outer"]) {stroke:#000000;}
g[c_partid="part_pad"][layerid="11"] circle {fill:#FFFFFF;}
g[c_partid="part_pad"][layerid="11"] > polyline:nth-of-type(2) {stroke:#FFFFFF;}
g[c_partid="part_pad"][layerid="11"][c_shape="ELLIPSE"]  polyline:nth-last-of-type(1) {stroke:#FFFFFF;}
g[c_partid="part_pad"][layerid="11"][c_shape="RECT"]  polyline:nth-last-of-type(1) {stroke:#FFFFFF;}
g[c_partid="part_pad"][layerid="11"][c_shape="POLYGON"]  polyline:nth-last-of-type(1) {stroke:#FFFFFF;}
g[c_partid="part_via"] > * + circle, #gCurParts g[c_partid="part_via"] > * + circle {fill:#FFFFFF;}
g[c_partid="part_pad"] > polygon[c_etype="pad_outer"], #gCurParts g[c_partid="part_pad"] > polygon[c_etype="pad_outer"] {stroke-linejoin: round;stroke-miterlimit: 100;}
g[c_partid="part_hole"] > circle {fill: #FFFFFF;}path, polyline, polygon {stroke-linejoin:round;}
rect, circle, ellipse, polyline, line, polygon, path {shape-rendering:crispEdges;}
</style>
<rect x="4037.6" y="3036.4" width="156.7" height="156.7" fill="#FFFFFF" stroke="none"/><polyline points="4117.8461 3169.4999 4114.2721 3173.0739 4065.4451 3173.0739 4064.5251 3172.1539 4064.5251 3169.9999" stroke-width="1"  stroke-linecap="round" fill="none" layerid="1" net="LED1_1" id="gge763" locked="0" /><polyline points="4120.5341 3169.4999 4117.8461 3169.4999" stroke-width="1"  stroke-linecap="round" fill="none" layerid="1" net="LED1_1" id="gge760" locked="0" /><polyline points="4061.6531 3169.9999 4064.5251 3169.9999" stroke-width="1"  stroke-linecap="round" fill="none" layerid="1" net="LED1_1" id="gge757" locked="0" /><polyline points="4160.5001 3127.4999 4113.7181 3127.4999 4071.2181 3169.9999" stroke-width="1"  stroke-linecap="round" fill="none" layerid="1" net="Q1_1" id="gge754" locked="0" /><polyline points="4068.3461 3169.9999 4071.2181 3169.9999" stroke-width="1"  stroke-linecap="round" fill="none" layerid="1" net="Q1_1" id="gge751" locked="0" /><polyline points="4126.4661 3169.4999 4123.7771 3169.4999" stroke-width="1"  stroke-linecap="round" fill="none" layerid="1" net="R1_2" id="gge748" locked="0" /><polyline points="4097.4661 3169.4999 4100.1541 3169.4999" stroke-width="1"  stroke-linecap="round" fill="none" layerid="1" net="R1_2" id="gge745" locked="0" /><polyline points="4123.7771 3169.4999 4123.7771 3166.8109 4123.6031 3166.6369 4103.0171 3166.6369 4100.1541 3169.4999" stroke-width="1"  stroke-linecap="round" fill="none" layerid="1" net="R1_2" id="gge742" locked="0" /><polyline points="4051.7421 3083.4999 4051.7421 3165.7729 4060.7791 3174.8099 4120.2301 3174.8099 4123.7771 3171.2629 4123.7771 3169.4999" stroke-width="1"  stroke-linecap="round" fill="none" layerid="1" net="R1_2" id="gge739" locked="0" /><polyline points="4061.5041 3083.4999 4051.7421 3083.4999" stroke-width="1"  stroke-linecap="round" fill="none" layerid="1" net="R1_2" id="gge736" locked="0" /><polyline points="4161.5001 3166.9999 4159.5181 3165.0179 4096.0161 3165.0179 4094.2231 3166.8109 4094.2231 3169.4999" stroke-width="1"  stroke-linecap="round" fill="none" layerid="1" net="LDR_1" id="gge730" locked="0" /><polyline points="4091.5341 3169.4999 4094.2231 3169.4999" stroke-width="1"  stroke-linecap="round" fill="none" layerid="1" net="LDR_1" id="gge727" locked="0" /><polyline points="4170.5001 3127.4999 4166.1531 3127.4999 4133.4711 3094.8179 4133.4711 3083.4999" stroke-width="1"  stroke-linecap="round" fill="none" layerid="1" net="LDR_2" id="gge721" locked="0" /><polyline points="4124.4961 3083.4999 4133.4711 3083.4999" stroke-width="1"  stroke-linecap="round" fill="none" layerid="1" net="LDR_2" id="gge718" locked="0" /><g c_partid="part_pad" c_etype="pinpart" c_origin="4124.496,3083.5" layerid="1" number="2" net="LDR_2" plated ="Y"  id="gge111" locked="0" c_rotation="180" c_width="15.748" c_height="9.0551" title="LDR_2" c_shape="RECT" pasteexpansion="0" solderexpansion="0.1969"><polygon  c_etype="pad_shell" points="4132.3701 3088.0276 4116.622 3088.0276 4116.622 3078.9724 4132.3701 3078.9724" layerid="1" stroke-width="0" /><circle c_etype="pad_hole" cx="4124.4961" cy="3083.5" r="0" layerid="1" stroke-width="0"/></g><g c_partid="part_pad" c_etype="pinpart" c_origin="4061.504,3083.5" layerid="1" number="1" net="R1_2" plated ="Y"  id="gge126" locked="0" c_rotation="180" c_width="17.3228" c_height="9.0551" title="R1_2" c_shape="RECT" pasteexpansion="0" solderexpansion="0.1969"><polygon  c_etype="pad_shell" points="4070.1654 3088.0276 4052.8425 3088.0276 4052.8425 3078.9724 4070.1654 3078.9724" layerid="1" stroke-width="0" /><circle c_etype="pad_hole" cx="4061.5039" cy="3083.5" r="0" layerid="1" stroke-width="0"/></g><g c_partid="part_pad" c_etype="pinpart" c_origin="4068.346,3170" layerid="1" number="2" net="Q1_1" plated ="Y"  id="gge267" locked="0" c_rotation="270" c_width="3.937" c_height="3.543" title="Q1_1" c_shape="RECT" pasteexpansion="0" solderexpansion="0.2"><polygon  c_etype="pad_shell" points="4070.1176 3168.0315 4070.1176 3171.9685 4066.5746 3171.9685 4066.5746 3168.0315" layerid="1" stroke-width="0" /><circle c_etype="pad_hole" cx="4068.3461" cy="3170" r="0" layerid="1" stroke-width="0"/></g><g c_partid="part_pad" c_etype="pinpart" c_origin="4061.653,3170" layerid="1" number="1" net="LED1_1" plated ="Y"  id="gge282" locked="0" c_rotation="270" c_width="3.937" c_height="3.543" title="LED1_1" c_shape="RECT" pasteexpansion="0" solderexpansion="0.2"><polygon  c_etype="pad_shell" points="4063.4247 3168.0315 4063.4247 3171.9685 4059.8817 3171.9685 4059.8817 3168.0315" layerid="1" stroke-width="0" /><circle c_etype="pad_hole" cx="4061.6532" cy="3170" r="0" layerid="1" stroke-width="0"/></g><g c_partid="part_pad" c_etype="pinpart" c_origin="4097.466,3169.5" layerid="1" number="2" net="R1_2" plated ="Y"  id="gge429" locked="0" c_rotation="0" c_width="3.1751" c_height="3.4016" title="R1_2" c_shape="RECT" pasteexpansion="-393.7008" solderexpansion="0.2000"><polygon  c_etype="pad_shell" points="4095.878 3171.2008 4095.878 3167.7992 4099.0531 3167.7992 4099.0531 3171.2008" layerid="1" stroke-width="0" /><circle c_etype="pad_hole" cx="4097.4655" cy="3169.5" r="0" layerid="1" stroke-width="0"/></g><g c_partid="part_pad" c_etype="pinpart" c_origin="4091.534,3169.5" layerid="1" number="1" net="LDR_1" plated ="Y"  id="gge441" locked="0" c_rotation="0" c_width="3.1751" c_height="3.4016" title="LDR_1" c_shape="RECT" pasteexpansion="-393.7008" solderexpansion="0.2000"><polygon  c_etype="pad_shell" points="4093.122 3171.2008 4093.122 3167.7992 4089.9469 3167.7992 4089.9469 3171.2008" layerid="1" stroke-width="0" /><circle c_etype="pad_hole" cx="4091.5345" cy="3169.5" r="0" layerid="1" stroke-width="0"/></g><g c_partid="part_pad" c_etype="pinpart" c_origin="4126.466,3169.5" layerid="1" number="2" net="R1_2" plated ="Y"  id="gge501" locked="0" c_rotation="0" c_width="3.1751" c_height="3.4016" title="R1_2" c_shape="RECT" pasteexpansion="-393.7008" solderexpansion="0.2000"><polygon  c_etype="pad_shell" points="4124.878 3171.2008 4124.878 3167.7992 4128.0531 3167.7992 4128.0531 3171.2008" layerid="1" stroke-width="0" /><circle c_etype="pad_hole" cx="4126.4655" cy="3169.5" r="0" layerid="1" stroke-width="0"/></g><g c_partid="part_pad" c_etype="pinpart" c_origin="4120.534,3169.5" layerid="1" number="1" net="LED1_1" plated ="Y"  id="gge513" locked="0" c_rotation="0" c_width="3.1751" c_height="3.4016" title="LED1_1" c_shape="RECT" pasteexpansion="-393.7008" solderexpansion="0.2000"><polygon  c_etype="pad_shell" points="4122.122 3171.2008 4122.122 3167.7992 4118.9469 3167.7992 4118.9469 3171.2008" layerid="1" stroke-width="0" /><circle c_etype="pad_hole" cx="4120.5345" cy="3169.5" r="0" layerid="1" stroke-width="0"/></g><g c_partid="part_pad" c_etype="pinpart" c_origin="4161.5,3167" layerid="11" number="1" net="LDR_1" plated ="Y"  id="gge189" locked="0" c_rotation="0" c_width="6.2992" c_height="6.2992" title="LDR_1" c_shape="ELLIPSE" pasteexpansion="0" solderexpansion="0.4"><ellipse c_etype="pad_shell" cx="4161.5" cy="3167" rx="3.1496" ry="3.1496" layerid="11" stroke-width="0"/><polyline c_etype="pad_hole" points="4161.49 3167 4161.51 3167" layerid="11" stroke-width="3.1496"></polyline></g><g c_partid="part_pad" c_etype="pinpart" c_origin="4171.5,3167" layerid="11" number="2" net="LDR_2" plated ="Y"  id="gge204" locked="0" c_rotation="0" c_width="6.2992" c_height="6.2992" title="LDR_2" c_shape="ELLIPSE" pasteexpansion="0" solderexpansion="0.4"><ellipse c_etype="pad_shell" cx="4171.5" cy="3167" rx="3.1496" ry="3.1496" layerid="11" stroke-width="0"/><polyline c_etype="pad_hole" points="4171.49 3167 4171.51 3167" layerid="11" stroke-width="3.1496"></polyline></g><g c_partid="part_pad" c_etype="pinpart" c_origin="4165.5,3122.5" layerid="11" number="2" net="LDR_1" plated ="Y"  id="gge336" locked="0" c_rotation="90" c_width="3.937" c_height="3.937" title="LDR_1" c_shape="ELLIPSE" pasteexpansion="0" solderexpansion="0.4"><ellipse c_etype="pad_shell" cx="4165.5" cy="3122.5" rx="1.9685" ry="1.9685" layerid="11" stroke-width="0"/><polyline c_etype="pad_hole" points="4165.5 3122.51 4165.5 3122.49" layerid="11" stroke-width="2.3622"></polyline></g><g c_partid="part_pad" c_etype="pinpart" c_origin="4170.5,3127.5" layerid="11" number="3" net="LDR_2" plated ="Y"  id="gge351" locked="0" c_rotation="90" c_width="3.937" c_height="3.937" title="LDR_2" c_shape="ELLIPSE" pasteexpansion="0" solderexpansion="0.4"><ellipse c_etype="pad_shell" cx="4170.5" cy="3127.5" rx="1.9685" ry="1.9685" layerid="11" stroke-width="0"/><polyline c_etype="pad_hole" points="4170.5 3127.51 4170.5 3127.49" layerid="11" stroke-width="2.3622"></polyline></g><g c_partid="part_pad" c_etype="pinpart" c_origin="4160.5,3127.5" layerid="11" number="1" net="Q1_1" plated ="Y"  id="gge366" locked="0" c_rotation="90" c_width="3.937" c_height="3.937" title="Q1_1" c_shape="RECT" pasteexpansion="0" solderexpansion="0.4"><polygon  c_etype="pad_shell" points="4158.5315 3129.4685 4158.5315 3125.5315 4162.4685 3125.5315 4162.4685 3129.4685" layerid="11" stroke-width="0" /><polyline c_etype="pad_hole" points="4160.5 3127.51 4160.5 3127.49" layerid="11" stroke-width="2.3622"></polyline></g><g c_partid="part_hole" c_etype="pinpart" c_shapetype="group" c_origin="4107.173,3083.5" layerid="11" id="gge81" locked="0" ><circle cx="4107.173" cy="3083.5" r="2.9528"  stroke-width="1" fill-opacity="0" /></g><g c_partid="part_hole" c_etype="pinpart" c_shapetype="group" c_origin="4077.646,3083.5" layerid="11" id="gge93" locked="0" ><circle cx="4077.646" cy="3083.5" r="2.9528"  stroke-width="1" fill-opacity="0" /></g><polyline points="4104.1 3073.5 4110.1 3073.5" stroke-width="0.5906"  stroke-linecap="round" fill="none" layerid="3" net="" id="gge42" locked="0" /><polyline points="4076.9999 3059.2063 4076.9999 3055.5" stroke-width="0.5906"  stroke-linecap="round" fill="none" layerid="3" net="" id="gge45" locked="0" /><polyline points="4076.9999 3055.5 4064.5746 3055.5" stroke-width="0.5906"  stroke-linecap="round" fill="none" layerid="3" net="" id="gge48" locked="0" /><polyline points="4064.5746 3055.5 4064.5746 3074.7161" stroke-width="0.5906"  stroke-linecap="round" fill="none" layerid="3" net="" id="gge51" locked="0" /><polyline points="4064.5746 3092.2839 4064.5746 3111.5" stroke-width="0.5906"  stroke-linecap="round" fill="none" layerid="3" net="" id="gge54" locked="0" /><polyline points="4064.5746 3111.5 4076.9999 3111.5" stroke-width="0.5906"  stroke-linecap="round" fill="none" layerid="3" net="" id="gge57" locked="0" /><polyline points="4076.9999 3111.5 4076.9999 3106.7744" stroke-width="0.5906"  stroke-linecap="round" fill="none" layerid="3" net="" id="gge60" locked="0" /><polyline points="4077.6 3077.5 4077.6 3069.5" stroke-width="0.5906"  stroke-linecap="round" fill="none" layerid="3" net="" id="gge63" locked="0" /><polyline points="4073.6 3073.5 4081.6 3073.5" stroke-width="0.5906"  stroke-linecap="round" fill="none" layerid="3" net="" id="gge66" locked="0" /><polyline points="4161.3 3175.46 4171.74 3175.46" stroke-width="0.4724"  stroke-linecap="round" fill="none" layerid="3" net="" id="gge162" locked="0" /><polyline points="4161.3 3158.54 4171.74 3158.54" stroke-width="0.4724"  stroke-linecap="round" fill="none" layerid="3" net="" id="gge165" locked="0" /><polyline points="4066.4567 3167.126 4070.9842 3167.126 4070.9842 3172.8346 4066.2598 3172.8346" stroke-width="0.5906"  stroke-linecap="round" fill="none" layerid="3" net="" id="gge237" locked="0" /><polyline points="4063.8189 3172.874 4058.937 3172.874 4058.937 3167.1654 4063.8189 3167.1654" stroke-width="0.5906"  stroke-linecap="round" fill="none" layerid="3" net="" id="gge240" locked="0" /><polyline points="4070.9842 3167.126 4071.1024 3167.126 4071.8898 3167.9134 4071.8898 3171.9291 4071.7716 3172.0472 4070.9842 3172.8346" stroke-width="0.5906"  stroke-linecap="round" fill="none" layerid="3" net="" id="gge243" locked="0" /><polyline points="4158.41 3134.78 4172.59 3134.78" stroke-width="0.4724"  stroke-linecap="round" fill="none" layerid="3" net="" id="gge318" locked="0" /><polyline points="4096.178 3172.1008 4099.9531 3172.1008 4099.9531 3166.8992 4096.178 3166.8992" stroke-width="0.6"  stroke-linecap="round" fill="none" layerid="3" net="" id="gge414" locked="0" /><polyline points="4092.822 3172.1008 4089.0469 3172.1008 4089.0469 3166.8992 4092.822 3166.8992" stroke-width="0.6"  stroke-linecap="round" fill="none" layerid="3" net="" id="gge417" locked="0" /><polyline points="4125.178 3172.1008 4128.9531 3172.1008 4128.9531 3166.8992 4125.178 3166.8992" stroke-width="0.6"  stroke-linecap="round" fill="none" layerid="3" net="" id="gge486" locked="0" /><polyline points="4121.822 3172.1008 4118.0469 3172.1008 4118.0469 3166.8992 4121.822 3166.8992" stroke-width="0.6"  stroke-linecap="round" fill="none" layerid="3" net="" id="gge489" locked="0" /><g c_partid="part_pcbtext" c_etype="" c_origin="4092.1,3046" c_rotation="0" c_mirror="0" id="gge9" locked="0" layerid="3" c_shapetype="group" display="none"><path c_fontsize="4.5" c_fontfamily="" c_text="CR1220-2" d="M 4095.17 3042.48 L 4094.96 3042.07 L 4094.55 3041.66 L 4094.15 3041.46 L 4093.33 3041.46 L 4092.92 3041.66 L 4092.51 3042.07 L 4092.3 3042.48 L 4092.1 3043.1 L 4092.1 3044.12 L 4092.3 3044.73 L 4092.51 3045.14 L 4092.92 3045.55 L 4093.33 3045.75 L 4094.15 3045.75 L 4094.55 3045.55 L 4094.96 3045.14 L 4095.17 3044.73 M 4096.52 3041.46 L 4096.52 3045.75 M 4096.52 3041.46 L 4098.36 3041.46 L 4098.97 3041.66 L 4099.18 3041.87 L 4099.38 3042.28 L 4099.38 3042.69 L 4099.18 3043.1 L 4098.97 3043.3 L 4098.36 3043.5 L 4096.52 3043.5 M 4097.95 3043.5 L 4099.38 3045.75 M 4100.73 3042.28 L 4101.14 3042.07 L 4101.75 3041.46 L 4101.75 3045.75 M 4103.31 3042.48 L 4103.31 3042.28 L 4103.51 3041.87 L 4103.72 3041.66 L 4104.13 3041.46 L 4104.95 3041.46 L 4105.35 3041.66 L 4105.56 3041.87 L 4105.76 3042.28 L 4105.76 3042.69 L 4105.56 3043.1 L 4105.15 3043.71 L 4103.1 3045.75 L 4105.97 3045.75 M 4107.52 3042.48 L 4107.52 3042.28 L 4107.73 3041.87 L 4107.93 3041.66 L 4108.34 3041.46 L 4109.16 3041.46 L 4109.57 3041.66 L 4109.77 3041.87 L 4109.98 3042.28 L 4109.98 3042.69 L 4109.77 3043.1 L 4109.36 3043.71 L 4107.32 3045.75 L 4110.18 3045.75 M 4112.76 3041.46 L 4112.15 3041.66 L 4111.74 3042.28 L 4111.53 3043.3 L 4111.53 3043.91 L 4111.74 3044.94 L 4112.15 3045.55 L 4112.76 3045.75 L 4113.17 3045.75 L 4113.78 3045.55 L 4114.19 3044.94 L 4114.4 3043.91 L 4114.4 3043.3 L 4114.19 3042.28 L 4113.78 3041.66 L 4113.17 3041.46 L 4112.76 3041.46 M 4115.75 3043.91 L 4119.43 3043.91 M 4120.98 3042.48 L 4120.98 3042.28 L 4121.19 3041.87 L 4121.39 3041.66 L 4121.8 3041.46 L 4122.62 3041.46 L 4123.03 3041.66 L 4123.23 3041.87 L 4123.44 3042.28 L 4123.44 3042.69 L 4123.23 3043.1 L 4122.82 3043.71 L 4120.78 3045.75 L 4123.64 3045.75" fill="none"  stroke-width="0.6" c_note="note_name" /></g><g c_partid="part_pcbtext" c_etype="" c_origin="4092.1,3053" c_rotation="0" c_mirror="0" id="gge15" locked="0" layerid="3" c_shapetype="group" ><path c_fontsize="4.5" c_fontfamily="" c_text="B1" d="M 4092.1 3048.46 L 4092.1 3052.75 M 4092.1 3048.46 L 4093.94 3048.46 L 4094.55 3048.66 L 4094.76 3048.87 L 4094.96 3049.28 L 4094.96 3049.69 L 4094.76 3050.1 L 4094.55 3050.3 L 4093.94 3050.5 M 4092.1 3050.5 L 4093.94 3050.5 L 4094.55 3050.71 L 4094.76 3050.91 L 4094.96 3051.32 L 4094.96 3051.94 L 4094.76 3052.35 L 4094.55 3052.55 L 4093.94 3052.75 L 4092.1 3052.75 M 4096.31 3049.28 L 4096.72 3049.07 L 4097.34 3048.46 L 4097.34 3052.75" fill="none"  stroke-width="0.6" c_note="note_pre" /></g><g c_partid="part_pcbtext" c_etype="" c_origin="4166.5,3149" c_rotation="0" c_mirror="0" id="gge147" locked="0" layerid="3" c_shapetype="group" display="none"><path c_fontsize="4.5" c_fontfamily="" c_text="VT93xx" d="M 4166.5 3144.46 L 4168.14 3148.75 M 4169.77 3144.46 L 4168.14 3148.75 M 4172.55 3144.46 L 4172.55 3148.75 M 4171.12 3144.46 L 4173.99 3144.46 M 4178 3145.89 L 4177.79 3146.5 L 4177.38 3146.91 L 4176.77 3147.12 L 4176.56 3147.12 L 4175.95 3146.91 L 4175.54 3146.5 L 4175.34 3145.89 L 4175.34 3145.69 L 4175.54 3145.07 L 4175.95 3144.66 L 4176.56 3144.46 L 4176.77 3144.46 L 4177.38 3144.66 L 4177.79 3145.07 L 4178 3145.89 L 4178 3146.91 L 4177.79 3147.94 L 4177.38 3148.55 L 4176.77 3148.75 L 4176.36 3148.75 L 4175.75 3148.55 L 4175.54 3148.14 M 4179.75 3144.46 L 4182 3144.46 L 4180.78 3146.1 L 4181.39 3146.1 L 4181.8 3146.3 L 4182 3146.5 L 4182.21 3147.12 L 4182.21 3147.53 L 4182 3148.14 L 4181.6 3148.55 L 4180.98 3148.75 L 4180.37 3148.75 L 4179.75 3148.55 L 4179.55 3148.35 L 4179.35 3147.94 M 4183.56 3145.89 L 4185.81 3148.75 M 4185.81 3145.89 L 4183.56 3148.75 M 4187.16 3145.89 L 4189.41 3148.75 M 4189.41 3145.89 L 4187.16 3148.75" fill="none"  stroke-width="0.6" c_note="note_name" /></g><g c_partid="part_pcbtext" c_etype="" c_origin="4166.5,3156" c_rotation="0" c_mirror="0" id="gge153" locked="0" layerid="3" c_shapetype="group" ><path c_fontsize="4.5" c_fontfamily="" c_text="LDR" d="M 4166.5 3151.46 L 4166.5 3155.75 M 4166.5 3155.75 L 4168.95 3155.75 M 4170.3 3151.46 L 4170.3 3155.75 M 4170.3 3151.46 L 4171.74 3151.46 L 4172.35 3151.66 L 4172.76 3152.07 L 4172.96 3152.48 L 4173.17 3153.1 L 4173.17 3154.12 L 4172.96 3154.73 L 4172.76 3155.14 L 4172.35 3155.55 L 4171.74 3155.75 L 4170.3 3155.75 M 4174.52 3151.46 L 4174.52 3155.75 M 4174.52 3151.46 L 4176.36 3151.46 L 4176.97 3151.66 L 4177.18 3151.87 L 4177.38 3152.28 L 4177.38 3152.69 L 4177.18 3153.1 L 4176.97 3153.3 L 4176.36 3153.5 L 4174.52 3153.5 M 4175.95 3153.5 L 4177.38 3155.75" fill="none"  stroke-width="0.6" c_note="note_pre" /></g><g c_partid="part_pcbtext" c_etype="" c_origin="4064.607,3158.307" c_rotation="0" c_mirror="0" id="gge225" locked="0" layerid="3" c_shapetype="group" display="none"><path c_fontsize="4.5" c_fontfamily="" c_text="LED-0603_R" d="M 4064.6073 3153.767 L 4064.6073 3158.057 M 4064.6073 3158.057 L 4067.0573 3158.057 M 4068.4073 3153.767 L 4068.4073 3158.057 M 4068.4073 3153.767 L 4071.0673 3153.767 M 4068.4073 3155.807 L 4070.0473 3155.807 M 4068.4073 3158.057 L 4071.0673 3158.057 M 4072.4173 3153.767 L 4072.4173 3158.057 M 4072.4173 3153.767 L 4073.8573 3153.767 L 4074.4673 3153.967 L 4074.8773 3154.377 L 4075.0773 3154.787 L 4075.2873 3155.407 L 4075.2873 3156.427 L 4075.0773 3157.037 L 4074.8773 3157.447 L 4074.4673 3157.857 L 4073.8573 3158.057 L 4072.4173 3158.057 M 4076.6373 3156.217 L 4080.3173 3156.217 M 4082.8973 3153.767 L 4082.2773 3153.967 L 4081.8673 3154.587 L 4081.6673 3155.607 L 4081.6673 3156.217 L 4081.8673 3157.247 L 4082.2773 3157.857 L 4082.8973 3158.057 L 4083.3073 3158.057 L 4083.9173 3157.857 L 4084.3273 3157.247 L 4084.5273 3156.217 L 4084.5273 3155.607 L 4084.3273 3154.587 L 4083.9173 3153.967 L 4083.3073 3153.767 L 4082.8973 3153.767 M 4088.3373 3154.377 L 4088.1273 3153.967 L 4087.5173 3153.767 L 4087.1073 3153.767 L 4086.4973 3153.967 L 4086.0873 3154.587 L 4085.8773 3155.607 L 4085.8773 3156.627 L 4086.0873 3157.447 L 4086.4973 3157.857 L 4087.1073 3158.057 L 4087.3073 3158.057 L 4087.9273 3157.857 L 4088.3373 3157.447 L 4088.5373 3156.837 L 4088.5373 3156.627 L 4088.3373 3156.017 L 4087.9273 3155.607 L 4087.3073 3155.407 L 4087.1073 3155.407 L 4086.4973 3155.607 L 4086.0873 3156.017 L 4085.8773 3156.627 M 4091.1173 3153.767 L 4090.5073 3153.967 L 4090.0973 3154.587 L 4089.8873 3155.607 L 4089.8873 3156.217 L 4090.0973 3157.247 L 4090.5073 3157.857 L 4091.1173 3158.057 L 4091.5273 3158.057 L 4092.1373 3157.857 L 4092.5473 3157.247 L 4092.7573 3156.217 L 4092.7573 3155.607 L 4092.5473 3154.587 L 4092.1373 3153.967 L 4091.5273 3153.767 L 4091.1173 3153.767 M 4094.5073 3153.767 L 4096.7573 3153.767 L 4095.5373 3155.407 L 4096.1473 3155.407 L 4096.5573 3155.607 L 4096.7573 3155.807 L 4096.9673 3156.427 L 4096.9673 3156.837 L 4096.7573 3157.447 L 4096.3573 3157.857 L 4095.7373 3158.057 L 4095.1273 3158.057 L 4094.5073 3157.857 L 4094.3073 3157.657 L 4094.1073 3157.247 M 4098.3173 3159.497 L 4101.9973 3159.497 M 4103.3473 3153.767 L 4103.3473 3158.057 M 4103.3473 3153.767 L 4105.1873 3153.767 L 4105.8073 3153.967 L 4106.0073 3154.177 L 4106.2073 3154.587 L 4106.2073 3154.997 L 4106.0073 3155.407 L 4105.8073 3155.607 L 4105.1873 3155.807 L 4103.3473 3155.807 M 4104.7773 3155.807 L 4106.2073 3158.057" fill="none"  stroke-width="0.6" c_note="note_name" /></g><g c_partid="part_pcbtext" c_etype="" c_origin="4064.607,3165.307" c_rotation="0" c_mirror="0" id="gge231" locked="0" layerid="3" c_shapetype="group" ><path c_fontsize="4.5" c_fontfamily="" c_text="LED1" d="M 4064.6073 3160.767 L 4064.6073 3165.057 M 4064.6073 3165.057 L 4067.0573 3165.057 M 4068.4073 3160.767 L 4068.4073 3165.057 M 4068.4073 3160.767 L 4071.0673 3160.767 M 4068.4073 3162.807 L 4070.0473 3162.807 M 4068.4073 3165.057 L 4071.0673 3165.057 M 4072.4173 3160.767 L 4072.4173 3165.057 M 4072.4173 3160.767 L 4073.8573 3160.767 L 4074.4673 3160.967 L 4074.8773 3161.377 L 4075.0773 3161.787 L 4075.2873 3162.407 L 4075.2873 3163.427 L 4075.0773 3164.037 L 4074.8773 3164.447 L 4074.4673 3164.857 L 4073.8573 3165.057 L 4072.4173 3165.057 M 4076.6373 3161.587 L 4077.0473 3161.377 L 4077.6573 3160.767 L 4077.6573 3165.057" fill="none"  stroke-width="0.6" c_note="note_pre" /></g><g c_partid="part_pcbtext" c_etype="" c_origin="4164.5,3107.5" c_rotation="0" c_mirror="0" id="gge303" locked="0" layerid="3" c_shapetype="group" display="none"><path c_fontsize="4.5" c_fontfamily="" c_text="BC547" d="M 4164.5 3102.96 L 4164.5 3107.25 M 4164.5 3102.96 L 4166.34 3102.96 L 4166.95 3103.16 L 4167.16 3103.37 L 4167.36 3103.78 L 4167.36 3104.19 L 4167.16 3104.6 L 4166.95 3104.8 L 4166.34 3105 M 4164.5 3105 L 4166.34 3105 L 4166.95 3105.21 L 4167.16 3105.41 L 4167.36 3105.82 L 4167.36 3106.44 L 4167.16 3106.85 L 4166.95 3107.05 L 4166.34 3107.25 L 4164.5 3107.25 M 4171.78 3103.98 L 4171.58 3103.57 L 4171.17 3103.16 L 4170.76 3102.96 L 4169.94 3102.96 L 4169.53 3103.16 L 4169.12 3103.57 L 4168.92 3103.98 L 4168.71 3104.6 L 4168.71 3105.62 L 4168.92 3106.23 L 4169.12 3106.64 L 4169.53 3107.05 L 4169.94 3107.25 L 4170.76 3107.25 L 4171.17 3107.05 L 4171.58 3106.64 L 4171.78 3106.23 M 4175.59 3102.96 L 4173.54 3102.96 L 4173.34 3104.8 L 4173.54 3104.6 L 4174.15 3104.39 L 4174.77 3104.39 L 4175.38 3104.6 L 4175.79 3105 L 4176 3105.62 L 4176 3106.03 L 4175.79 3106.64 L 4175.38 3107.05 L 4174.77 3107.25 L 4174.15 3107.25 L 4173.54 3107.05 L 4173.34 3106.85 L 4173.13 3106.44 M 4179.39 3102.96 L 4177.35 3105.82 L 4180.41 3105.82 M 4179.39 3102.96 L 4179.39 3107.25 M 4184.63 3102.96 L 4182.58 3107.25 M 4181.76 3102.96 L 4184.63 3102.96" fill="none"  stroke-width="0.6" c_note="note_name" /></g><g c_partid="part_pcbtext" c_etype="" c_origin="4164.5,3114.5" c_rotation="0" c_mirror="0" id="gge309" locked="0" layerid="3" c_shapetype="group" ><path c_fontsize="4.5" c_fontfamily="" c_text="Q1" d="M 4165.73 3109.96 L 4165.32 3110.16 L 4164.91 3110.57 L 4164.7 3110.98 L 4164.5 3111.6 L 4164.5 3112.62 L 4164.7 3113.23 L 4164.91 3113.64 L 4165.32 3114.05 L 4165.73 3114.25 L 4166.55 3114.25 L 4166.95 3114.05 L 4167.36 3113.64 L 4167.57 3113.23 L 4167.77 3112.62 L 4167.77 3111.6 L 4167.57 3110.98 L 4167.36 3110.57 L 4166.95 3110.16 L 4166.55 3109.96 L 4165.73 3109.96 M 4166.34 3113.44 L 4167.57 3114.66 M 4169.12 3110.78 L 4169.53 3110.57 L 4170.15 3109.96 L 4170.15 3114.25" fill="none"  stroke-width="0.6" c_note="note_pre" /></g><g c_partid="part_pcbtext" c_etype="" c_origin="4094.5,3158.5" c_rotation="0" c_mirror="0" id="gge387" locked="0" layerid="3" c_shapetype="group" display="none"><path c_fontsize="4.5" c_fontfamily="" c_text="47k" d="M 4096.55 3153.96 L 4094.5 3156.82 L 4097.57 3156.82 M 4096.55 3153.96 L 4096.55 3158.25 M 4101.78 3153.96 L 4099.74 3158.25 M 4098.92 3153.96 L 4101.78 3153.96 M 4103.13 3153.96 L 4103.13 3158.25 M 4105.18 3155.39 L 4103.13 3157.44 M 4103.95 3156.62 L 4105.38 3158.25" fill="none"  stroke-width="0.6" c_note="note_name" /></g><g c_partid="part_pcbtext" c_etype="" c_origin="4094.5,3165.5" c_rotation="0" c_mirror="0" id="gge393" locked="0" layerid="3" c_shapetype="group" ><path c_fontsize="4.5" c_fontfamily="" c_text="R1" d="M 4094.5 3160.96 L 4094.5 3165.25 M 4094.5 3160.96 L 4096.34 3160.96 L 4096.95 3161.16 L 4097.16 3161.37 L 4097.36 3161.78 L 4097.36 3162.19 L 4097.16 3162.6 L 4096.95 3162.8 L 4096.34 3163 L 4094.5 3163 M 4095.93 3163 L 4097.36 3165.25 M 4098.71 3161.78 L 4099.12 3161.57 L 4099.74 3160.96 L 4099.74 3165.25" fill="none"  stroke-width="0.6" c_note="note_pre" /></g><g c_partid="part_pcbtext" c_etype="" c_origin="4123.5,3158.5" c_rotation="0" c_mirror="0" id="gge459" locked="0" layerid="3" c_shapetype="group" display="none"><path c_fontsize="4.5" c_fontfamily="" c_text="470Ohm" d="M 4125.55 3153.96 L 4123.5 3156.82 L 4126.57 3156.82 M 4125.55 3153.96 L 4125.55 3158.25 M 4130.78 3153.96 L 4128.74 3158.25 M 4127.92 3153.96 L 4130.78 3153.96 M 4133.36 3153.96 L 4132.75 3154.16 L 4132.34 3154.78 L 4132.13 3155.8 L 4132.13 3156.41 L 4132.34 3157.44 L 4132.75 3158.05 L 4133.36 3158.25 L 4133.77 3158.25 L 4134.38 3158.05 L 4134.79 3157.44 L 4135 3156.41 L 4135 3155.8 L 4134.79 3154.78 L 4134.38 3154.16 L 4133.77 3153.96 L 4133.36 3153.96 M 4137.57 3153.96 L 4137.16 3154.16 L 4136.75 3154.57 L 4136.55 3154.98 L 4136.35 3155.6 L 4136.35 3156.62 L 4136.55 3157.23 L 4136.75 3157.64 L 4137.16 3158.05 L 4137.57 3158.25 L 4138.39 3158.25 L 4138.8 3158.05 L 4139.21 3157.64 L 4139.41 3157.23 L 4139.62 3156.62 L 4139.62 3155.6 L 4139.41 3154.98 L 4139.21 3154.57 L 4138.8 3154.16 L 4138.39 3153.96 L 4137.57 3153.96 M 4140.97 3153.96 L 4140.97 3158.25 M 4140.97 3156.21 L 4141.58 3155.6 L 4141.99 3155.39 L 4142.6 3155.39 L 4143.01 3155.6 L 4143.22 3156.21 L 4143.22 3158.25 M 4144.57 3155.39 L 4144.57 3158.25 M 4144.57 3156.21 L 4145.18 3155.6 L 4145.59 3155.39 L 4146.2 3155.39 L 4146.61 3155.6 L 4146.82 3156.21 L 4146.82 3158.25 M 4146.82 3156.21 L 4147.43 3155.6 L 4147.84 3155.39 L 4148.45 3155.39 L 4148.86 3155.6 L 4149.07 3156.21 L 4149.07 3158.25" fill="none"  stroke-width="0.6" c_note="note_name" /></g><g c_partid="part_pcbtext" c_etype="" c_origin="4123.5,3165.5" c_rotation="0" c_mirror="0" id="gge465" locked="0" layerid="3" c_shapetype="group" ><path c_fontsize="4.5" c_fontfamily="" c_text="R2" d="M 4123.5 3160.96 L 4123.5 3165.25 M 4123.5 3160.96 L 4125.34 3160.96 L 4125.95 3161.16 L 4126.16 3161.37 L 4126.36 3161.78 L 4126.36 3162.19 L 4126.16 3162.6 L 4125.95 3162.8 L 4125.34 3163 L 4123.5 3163 M 4124.93 3163 L 4126.36 3165.25 M 4127.92 3161.98 L 4127.92 3161.78 L 4128.12 3161.37 L 4128.33 3161.16 L 4128.74 3160.96 L 4129.55 3160.96 L 4129.96 3161.16 L 4130.17 3161.37 L 4130.37 3161.78 L 4130.37 3162.19 L 4130.17 3162.6 L 4129.76 3163.21 L 4127.71 3165.25 L 4130.58 3165.25" fill="none"  stroke-width="0.6" c_note="note_pre" /></g><path d="M 4066.1676 3092.5451 A 28.3159 28.3159 0 0 0 4120.0531 3091.8619" locked="0"  fill="none" stroke-width="0.5906" c_helper_type="arc2" net="" layerid="3" id="gge69" /><path d="M 4120.2347 3075.0195 A 28.5245 28.5245 0 0 0 4065.7912 3074.9366" locked="0"  fill="none" stroke-width="0.5906" c_helper_type="arc2" net="" layerid="3" id="gge72" /><path d="M 4161.3032 3175.4646 A 9.8916 9.8916 0 0 1 4161.2028 3158.5969" locked="0"  fill="none" stroke-width="0.4724" c_helper_type="arc2" net="" layerid="3" id="gge168" /><path d="M 4171.7362 3158.5355 A 9.9949 9.9949 0 0 1 4171.8465 3175.3943" locked="0"  fill="none" stroke-width="0.4724" c_helper_type="arc2" net="" layerid="3" id="gge171" /><path d="M 4165.5 3117.2638 A 10.2362 10.2362 0 0 0 4158.2619 3134.7381" locked="0"  fill="none" stroke-width="0.4724" c_helper_type="arc2" net="" layerid="3" id="gge321" /><path d="M 4165.5 3117.2638 A 10.2362 10.2362 0 0 1 4172.7381 3134.7381" locked="0"  fill="none" stroke-width="0.4724" c_helper_type="arc2" net="" layerid="3" id="gge324" /><path d="M 4064.5669 3168.5827 L 4064.5273 3171.417 L 4065.5509 3169.9997 Z " stroke-width="0"   net="" type="solid" layerid="3" id="gge246" locked="0" c_teardrop="" c_targetpad="" c_targetwire="" /><polyline points="4047.56 3046.4 4184.25 3046.4 4184.25 3183.09 4047.56 3183.09 4047.56 3046.4" stroke-width="1"  stroke-linecap="round" fill="none" layerid="10" net="" id="gge552" locked="0" /></svg>